<svg width="91" height="91" xmlns="http://www.w3.org/2000/svg">

 <g>
  <title>background</title>
  <rect fill="none" id="canvas_background" height="402" width="582" y="-1" x="-1"/>
 </g>
 <g>
  <title>Layer 1</title>
  <path id="svg_6" fill="#454B53" d="m22.229,89.881c-11.932,0 -21.641,-9.708 -21.641,-21.641c0,-11.932 9.709,-21.64 21.641,-21.64c11.933,0 21.641,9.708 21.641,21.64c0,11.933 -9.708,21.641 -21.641,21.641zm0,-38.255c-9.162,0 -16.615,7.453 -16.615,16.614c0,9.162 7.453,16.615 16.615,16.615s16.615,-7.453 16.615,-16.615c0,-9.161 -7.453,-16.614 -16.615,-16.614z"/>
  <path id="svg_7" fill="#454B53" d="m13.592,79.39c-0.643,0 -1.285,-0.245 -1.776,-0.736c-0.981,-0.981 -0.981,-2.572 0.001,-3.553l17.27,-17.271c0.98,-0.982 2.571,-0.982 3.554,0c0.98,0.981 0.98,2.572 -0.001,3.553l-17.27,17.27c-0.491,0.492 -1.134,0.737 -1.778,0.737z"/>
  <path id="svg_8" fill="#454B53" d="m30.864,79.39c-0.643,0 -1.286,-0.245 -1.776,-0.736l-17.271,-17.271c-0.982,-0.98 -0.982,-2.571 -0.001,-3.553c0.981,-0.982 2.573,-0.982 3.554,0l17.27,17.271c0.981,0.98 0.981,2.571 0.001,3.553c-0.491,0.491 -1.135,0.736 -1.777,0.736z"/>
  <path id="svg_11" fill="#454B53" d="m22.229,44.397c-11.932,0 -21.641,-9.708 -21.641,-21.64s9.709,-21.638 21.641,-21.638c11.933,0 21.641,9.707 21.641,21.639s-9.708,21.639 -21.641,21.639zm0,-38.252c-9.162,0 -16.615,7.452 -16.615,16.613s7.453,16.614 16.615,16.614s16.615,-7.453 16.615,-16.614s-7.453,-16.613 -16.615,-16.613z"/>
  <path id="svg_12" fill="#454B53" d="m31.052,25.271l-17.647,0c-1.388,0 -2.513,-1.125 -2.513,-2.513s1.125,-2.513 2.513,-2.513l17.647,0c1.388,0 2.513,1.125 2.513,2.513s-1.125,2.513 -2.513,2.513z"/>
  <path id="svg_13" fill="#454B53" d="m22.229,34.094c-1.388,0 -2.513,-1.125 -2.513,-2.513l0,-17.646c0,-1.388 1.125,-2.513 2.513,-2.513s2.513,1.125 2.513,2.513l0,17.646c0,1.388 -1.125,2.513 -2.513,2.513z"/>
  <path id="svg_16" fill="#454B53" d="m68.771,44.397c-11.934,0 -21.645,-9.708 -21.645,-21.64s9.712,-21.638 21.645,-21.638c11.932,0 21.641,9.707 21.641,21.639s-9.709,21.639 -21.641,21.639zm0,-38.252c-9.164,0 -16.619,7.452 -16.619,16.613s7.455,16.614 16.619,16.614c9.162,0 16.615,-7.453 16.615,-16.614s-7.452,-16.613 -16.615,-16.613z"/>
  <path id="svg_17" fill="#454B53" d="m77.594,25.271l-17.647,0c-1.389,0 -2.514,-1.125 -2.514,-2.513s1.125,-2.513 2.514,-2.513l17.646,0c1.387,0 2.512,1.125 2.512,2.513s-1.125,2.513 -2.511,2.513z"/>
  <path id="svg_20" fill="#454B53" d="m68.771,89.881c-11.934,0 -21.645,-9.708 -21.645,-21.641c0,-11.932 9.711,-21.64 21.645,-21.64c11.932,0 21.641,9.708 21.641,21.64c0,11.933 -9.709,21.641 -21.641,21.641zm0,-38.255c-9.164,0 -16.619,7.453 -16.619,16.614c0,9.162 7.455,16.615 16.619,16.615c9.162,0 16.615,-7.453 16.615,-16.615c0.001,-9.161 -7.452,-16.614 -16.615,-16.614z"/>
  <path id="svg_21" fill="#454B53" d="m77.594,70.753l-17.647,0c-1.389,0 -2.514,-1.125 -2.514,-2.513s1.125,-2.513 2.514,-2.513l17.646,0c1.387,0 2.512,1.125 2.512,2.513s-1.125,2.513 -2.511,2.513z"/>
  <path id="svg_22" fill="#454B53" d="m68.77,64.352c-1.746,0 -3.166,-1.42 -3.166,-3.165c0,-1.746 1.42,-3.167 3.166,-3.167s3.168,1.421 3.168,3.167c0,1.745 -1.422,3.165 -3.168,3.165zm0,-5.026c-1.023,0 -1.857,0.835 -1.857,1.86c0,1.024 0.834,1.858 1.857,1.858c1.025,0 1.859,-0.834 1.859,-1.858c0,-1.025 -0.834,-1.86 -1.859,-1.86z"/>
  <path id="svg_23" fill="#454B53" d="m68.77,78.462c-1.746,0 -3.166,-1.422 -3.166,-3.169c0,-1.744 1.42,-3.163 3.166,-3.163s3.168,1.419 3.168,3.163c0,1.747 -1.422,3.169 -3.168,3.169zm0,-5.025c-1.023,0 -1.857,0.833 -1.857,1.856c0,1.026 0.834,1.862 1.857,1.862c1.025,0 1.859,-0.836 1.859,-1.862c0,-1.023 -0.834,-1.856 -1.859,-1.856z"/>
  <path id="svg_28" fill="#4c4c4c" d="m22.229,89.881c-11.932,0 -21.641,-9.708 -21.641,-21.641c0,-11.932 9.709,-21.64 21.641,-21.64c11.933,0 21.641,9.708 21.641,21.64c0,11.933 -9.708,21.641 -21.641,21.641zm0,-38.255c-9.162,0 -16.615,7.453 -16.615,16.614c0,9.162 7.453,16.615 16.615,16.615s16.615,-7.453 16.615,-16.615c0,-9.161 -7.453,-16.614 -16.615,-16.614z"/>
  <path id="svg_29" fill="#4c4c4c" d="m13.592,79.39c-0.643,0 -1.285,-0.245 -1.776,-0.736c-0.981,-0.981 -0.981,-2.572 0.001,-3.553l17.27,-17.271c0.98,-0.982 2.571,-0.982 3.554,0c0.98,0.981 0.98,2.572 -0.001,3.553l-17.27,17.27c-0.491,0.492 -1.134,0.737 -1.778,0.737z"/>
  <path id="svg_30" fill="#4c4c4c" d="m30.864,79.39c-0.643,0 -1.286,-0.245 -1.776,-0.736l-17.271,-17.271c-0.982,-0.98 -0.982,-2.571 -0.001,-3.553c0.981,-0.982 2.573,-0.982 3.554,0l17.27,17.271c0.981,0.98 0.981,2.571 0.001,3.553c-0.491,0.491 -1.135,0.736 -1.777,0.736z"/>
  <circle stroke="#000000" stroke-opacity="0" id="svg_32" r="19.127001" fill="none" cy="22.888747" cx="11.769245"/>
  <path id="svg_33" fill="#4c4c4c" d="m22.359747,44.397c-11.932,0 -21.641,-9.708 -21.641,-21.64s9.709,-21.638 21.641,-21.638c11.933,0 21.641,9.707 21.641,21.639s-9.708,21.639 -21.641,21.639zm0,-38.252c-9.162,0 -16.615,7.452 -16.615,16.613s7.453,16.614 16.615,16.614s16.615,-7.453 16.615,-16.614s-7.453,-16.613 -16.615,-16.613z"/>
  <path id="svg_34" fill="#4c4c4c" d="m31.052,25.271l-17.647,0c-1.388,0 -2.513,-1.125 -2.513,-2.513s1.125,-2.513 2.513,-2.513l17.647,0c1.388,0 2.513,1.125 2.513,2.513s-1.125,2.513 -2.513,2.513z"/>
  <path id="svg_35" fill="#4c4c4c" d="m22.229,34.094c-1.388,0 -2.513,-1.125 -2.513,-2.513l0,-17.646c0,-1.388 1.125,-2.513 2.513,-2.513s2.513,1.125 2.513,2.513l0,17.646c0,1.388 -1.125,2.513 -2.513,2.513z"/>
  <path id="svg_38" fill="#4c4c4c" d="m68.771,44.397c-11.934,0 -21.645,-9.708 -21.645,-21.64s9.712,-21.638 21.645,-21.638c11.932,0 21.641,9.707 21.641,21.639s-9.709,21.639 -21.641,21.639zm0,-38.252c-9.164,0 -16.619,7.452 -16.619,16.613s7.455,16.614 16.619,16.614c9.162,0 16.615,-7.453 16.615,-16.614s-7.452,-16.613 -16.615,-16.613z"/>
  <path id="svg_39" fill="#4c4c4c" d="m77.594,25.140253l-17.647,0c-1.389,0 -2.514,-1.125 -2.514,-2.513s1.125,-2.513 2.514,-2.513l17.646,0c1.387,0 2.512,1.125 2.512,2.513s-1.125,2.513 -2.511,2.513z"/>
  <path id="svg_42" fill="#4c4c4c" d="m68.771,89.881c-11.934,0 -21.645,-9.708 -21.645,-21.641c0,-11.932 9.711,-21.64 21.645,-21.64c11.932,0 21.641,9.708 21.641,21.64c0,11.933 -9.709,21.641 -21.641,21.641zm0,-38.255c-9.164,0 -16.619,7.453 -16.619,16.614c0,9.162 7.455,16.615 16.619,16.615c9.162,0 16.615,-7.453 16.615,-16.615c0.001,-9.161 -7.452,-16.614 -16.615,-16.614z"/>
  <path id="svg_43" fill="#4c4c4c" d="m77.594,70.753l-17.647,0c-1.389,0 -2.514,-1.125 -2.514,-2.513s1.125,-2.513 2.514,-2.513l17.646,0c1.387,0 2.512,1.125 2.512,2.513s-1.125,2.513 -2.511,2.513z"/>
  <path id="svg_44" fill="#4c4c4c" d="m68.77,64.352c-1.746,0 -3.166,-1.42 -3.166,-3.165c0,-1.746 1.42,-3.167 3.166,-3.167s3.168,1.421 3.168,3.167c0,1.745 -1.422,3.165 -3.168,3.165z"/>
  <path id="svg_45" fill="#4c4c4c" d="m68.77,78.462c-1.746,0 -3.166,-1.422 -3.166,-3.169c0,-1.744 1.42,-3.163 3.166,-3.163s3.168,1.419 3.168,3.163c0,1.747 -1.422,3.169 -3.168,3.169z"/>
 </g>
</svg>