<svg width="128" height="128" xmlns="http://www.w3.org/2000/svg">

 <g>
  <title>background</title>
  <rect fill="none" id="canvas_background" height="402" width="582" y="-1" x="-1"/>
 </g>
 <g>
  <title>Layer 1</title>
  <path id="svg_3" fill="#7f7f7f" d="m20,72l8,0l0,-8l-8,0l0,8zm0,16l8,0l0,-8l-8,0l0,8zm0,16l8,0l0,-8l-8,0l0,8zm24,-40l-8,0l0,8l8,0l0,-8zm0,16l-8,0l0,8l8,0l0,-8zm16,-16l-8,0l0,8l8,0l0,-8zm0,16l-8,0l0,8l8,0l0,-8zm8,-8l8,0l0,-8l-8,0l0,8zm0,16l8,0l0,-8l-8,0l0,8zm16,-16l8,0l0,-8l-8,0l0,8zm0,16l8,0l0,-8l-8,0l0,8zm0,16l8,0l0,-8l-8,0l0,8zm16,-40l0,8l8,0l0,-8l-8,0zm0,24l8,0l0,-8l-8,0l0,8zm0,16l8,0l0,-8l-8,0l0,8zm-64,0l40,0l0,-8l-40,0l0,8z"/>
  <path id="svg_4" fill="#4c4c4c" d="m107.816092,48l-40,0c12,-13.332 -12,-26.668 0,-40c-2.668,0 -5.332,0 -8,0c-12,13.332 12,26.668 0,40l-40,0c-8.836,0 -16,7.164 -16,16l0,40c0,8.836 7.164,16 16,16l88,0c8.836,0 16,-7.164 16,-16l0,-40c0,-8.836 -7.164,-16 -16,-16zm8,56c0,4.41 -3.59,8 -8,8l-88,0c-4.41,0 -8,-3.59 -8,-8l0,-40c0,-4.41 3.59,-8 8,-8l88,0c4.41,0 8,3.59 8,8l0,40z"/>
 </g>
</svg>