<svg width="64" height="64" xmlns="http://www.w3.org/2000/svg" xmlns:xlink="http://www.w3.org/1999/xlink">
 <g>
  <title>background</title>
  <rect fill="none" id="canvas_background" height="402" width="582" y="-1" x="-1"/>
 </g>
 <g>
  <title>Layer 1</title>
  <defs>
   <rect y="0.021" x="0.011" width="63.957" id="SVGID_1_" height="63.957"/>
  </defs>
  <clipPath id="SVGID_2_">
   <use id="svg_2" xlink:href="#SVGID_1_"/>
  </clipPath>
  <path id="svg_3" fill="#4c4c4c" d="m40.77723,19.964126c-0.256,0 -0.512,-0.098 -0.707,-0.293c-0.391,-0.39 -0.391,-1.022 0,-1.413l1.558,-1.558c0.391,-0.39 1.022,-0.39 1.413,0c0.391,0.391 0.391,1.023 0,1.413l-1.558,1.558c-0.195,0.196 -0.451,0.293 -0.706,0.293zm-28.212,28.629l1.558,-1.558c0.39,-0.391 0.39,-1.022 0,-1.413c-0.391,-0.391 -1.023,-0.391 -1.413,0l-1.558,1.558c-0.39,0.39 -0.39,1.022 0,1.413c0.195,0.195 0.451,0.293 0.707,0.293s0.511,-0.098 0.706,-0.293zm-3.817,-15.947c0,-0.553 -0.447,-1 -0.999,-1l-2.202,0c-0.552,0 -1,0.447 -1,1c0,0.552 0.447,0.999 1,0.999l2.202,0c0.552,0 0.999,-0.446 0.999,-0.999zm19.35,-19.348l0,-2.203c0,-0.552 -0.447,-0.999 -1,-0.999s-1,0.447 -1,0.999l0,2.203c0,0.552 0.447,1 1,1s1,-0.448 1,-1zm-13.975,6.373c0.39,-0.39 0.39,-1.022 0,-1.413l-1.558,-1.558c-0.39,-0.39 -1.022,-0.39 -1.413,0c-0.39,0.391 -0.39,1.023 0,1.413l1.558,1.558c0.195,0.195 0.451,0.293 0.707,0.293s0.511,-0.097 0.706,-0.293zm43.322,22.744c0,4.827 -3.927,8.754 -8.754,8.754l-21.533,0c-3.741,0 -6.866,-2.621 -7.674,-6.119c-4.304,-2.648 -6.973,-7.345 -6.973,-12.404c0,-8.044 6.545,-14.59 14.59,-14.59c6.739,0 12.567,4.656 14.146,11.147c2.487,0.714 4.647,2.326 6.031,4.588c0.498,-0.091 0.959,-0.134 1.413,-0.134c4.828,0 8.754,3.929 8.754,8.758zm-38.143,0.102c0.015,-0.154 0.063,-0.297 0.086,-0.447c0.036,-0.229 0.075,-0.452 0.13,-0.675c0.067,-0.271 0.152,-0.533 0.247,-0.793c0.077,-0.211 0.153,-0.419 0.247,-0.622c0.116,-0.252 0.252,-0.488 0.393,-0.725c0.112,-0.188 0.221,-0.377 0.348,-0.554c0.162,-0.225 0.343,-0.432 0.527,-0.639c0.143,-0.16 0.278,-0.326 0.434,-0.475c0.205,-0.195 0.429,-0.366 0.655,-0.54c0.164,-0.127 0.319,-0.262 0.494,-0.377c0.25,-0.162 0.518,-0.293 0.786,-0.426c0.176,-0.09 0.341,-0.191 0.525,-0.268c0.307,-0.124 0.631,-0.208 0.956,-0.296c0.164,-0.044 0.319,-0.109 0.487,-0.143c0.5,-0.1 1.015,-0.156 1.544,-0.156c0.458,0 0.924,0.048 1.407,0.146c1.534,-4.016 5.427,-6.744 9.783,-6.744c0.244,0 0.492,0.011 0.744,0.031c-1.642,-5.154 -6.474,-8.762 -11.992,-8.762c-6.942,0 -12.591,5.648 -12.591,12.591c-0.003,3.87 1.796,7.506 4.79,9.874zm36.145,-0.102c0,-3.728 -3.031,-6.759 -6.756,-6.759c-0.505,0 -1.038,0.075 -1.675,0.238c-0.45,0.104 -0.921,-0.098 -1.134,-0.511c-1.163,-2.254 -3.23,-3.812 -5.623,-4.365c-0.016,-0.003 -0.029,-0.002 -0.045,-0.005c-0.328,-0.074 -0.639,-0.128 -0.935,-0.166c-0.309,-0.034 -0.617,-0.064 -0.932,-0.064c-3.792,0 -7.15,2.555 -8.164,6.214c-0.072,0.262 -0.248,0.481 -0.487,0.61c-0.12,0.063 -0.251,0.102 -0.383,0.115c-0.133,0.014 -0.267,0 -0.395,-0.041c-0.641,-0.203 -1.217,-0.3 -1.762,-0.3c-3.25,0 -5.894,2.645 -5.894,5.896c0,0.344 0.048,0.676 0.104,1.004c0.001,0.004 -0.002,0.006 -0.001,0.01c0.483,2.766 2.888,4.879 5.791,4.879l21.533,0c3.727,0 6.758,-3.031 6.758,-6.755z" clip-path="url(#SVGID_2_)"/>
 </g>
</svg>